Falling.Skies.S02E09.HDTV.DivX-Atilla82

 
http://www.imdb.com/title/tt1462059/

Survivors of an alien attack on earth gather together to fight for their lives and fight back.

language: English


General
Complete name : Falling.Skies.S02E09.HDTV.DivX-Atilla82.avi
Format : AVI
Format/Info : Audio Video Interleave
File size : 350 MiB
Duration : 42mn 18s
Overall bit rate : 1 157 Kbps
Writing application : VirtualDubMod 1.5.10.2 (build 2540/release)
Writing library : VirtualDubMod build 2540/release

Video
ID : 0
Format : MPEG-4 Visual
Format settings, BVOP : 1
Format settings, QPel : No
Format settings, GMC : No warppoints
Format settings, Matrix : Default (H.263)
Muxing mode : Packed bitstream
Codec ID : DX50
Codec ID/Hint : DivX 5
Duration : 42mn 18s
Bit rate : 1 020 Kbps
Width : 680 pixels
Height : 384 pixels
Display aspect ratio : 16:9
Frame rate : 23.976 fps
Color space : YUV
Chroma subsampling : 4:2:0
Bit depth : 8 bits
Scan type : Progressive
Compression mode : Lossy
Bits/(Pixel*Frame) : 0.163
Stream size : 309 MiB (88%)
Writing library : DivX 3330

Audio
ID : 1
Format : MPEG Audio
Format version : Version 1
Format profile : Layer 3
Codec ID : 55
Codec ID/Hint : MP3
Duration : 42mn 18s
Bit rate mode : Constant
Bit rate : 128 Kbps
Channel(s) : 2 channels
Sampling rate : 48.0 KHz
Compression mode : Lossy
Stream size : 38.7 MiB (11%)
Alignment : Aligned on interleaves
Interleave, duration : 42 ms (1.00 video frame)
Interleave, preload duration : 504 ms
Writing library : LAME3.98.4


SCREENSHOTS 
http://www.pohrani.com/f/1y/LB/nrW68Em/screens.jpg



